<svg enable-background="new 0 0 512 512" viewBox="0 0 512 512" xmlns="http://www.w3.org/2000/svg" xmlns:xlink="http://www.w3.org/1999/xlink" width="300" height="300" version="1.1" xmlns:svgjs="http://svgjs.dev/svgjs"><g width="100%" height="100%" transform="matrix(1,0,0,1,0,0)"><linearGradient id="SVGID_1_" gradientUnits="userSpaceOnUse" x1="86.241" x2="455.364" y1="415.589" y2="46.466"><stop stop-opacity="1" stop-color="#2563eb" offset="0"/><stop stop-opacity="1" stop-color="#03bdff" offset="1"/></linearGradient><g id="_x31_5_Radar"><path d="m41.088 352.695c26.333 53.04 71.104 94.271 126.066 116.092 2.935 1.168 6.264-.264 7.436-3.207 1.167-2.939-.272-6.267-3.209-7.434-52.331-20.778-94.963-60.037-120.039-110.546-56.073-112.743-9.922-250.106 102.875-306.208 45.036-22.378 94.628-29.186 143.793-19.888l-12.016 56.213c-36.368-6.534-72.959-1.324-106.185 15.213-84.564 42.051-119.017 144.46-76.96 229.041 36.958 74.35 121.367 111.022 200.334 88.178 3.038-.88 4.786-4.053 3.906-7.091-.88-3.041-4.059-4.784-7.089-3.908-73.97 21.404-152.562-13.206-186.901-82.276-39.223-78.889-7.114-174.449 71.812-213.693 30.877-15.375 64.872-20.257 98.689-14.267l-11.672 54.604c-21.303-3.369-42.705-.169-62.235 9.524-19.836 9.86-35.666 25.386-45.778 44.896-1.454 2.808-.358 6.264 2.449 7.717 2.808 1.46 6.261.357 7.719-2.447 8.986-17.341 23.064-31.141 40.705-39.911 17.185-8.532 36.004-11.416 54.747-8.582l-10.28 48.091c-7.769-.633-15.498.82-22.662 4.366-21.392 10.646-30.14 36.608-19.486 58.02 10.662 21.447 36.629 30.179 58.022 19.529 16.274-8.073 25.496-25.09 23.803-42.725l47.97-10.962c6.591 39.821-13.349 79.331-49.995 97.539-44.428 22.108-97.951 5.388-121.858-38.055-1.528-2.771-5.006-3.776-7.779-2.255-2.769 1.524-3.779 5.006-2.255 7.775 26.956 48.976 87.191 67.566 136.986 42.787 41.405-20.568 63.823-65.338 56.061-110.341l54.351-12.42c10.267 53.491-7.443 108.326-47.055 145.698-9.109-8.671-22.801-11.049-34.523-5.224-15.088 7.502-21.183 25.789-13.716 40.819 7.477 15.038 25.736 21.212 40.82 13.716 14.68-7.298 20.977-24.904 14.115-39.9 43.375-40.168 62.793-99.676 51.521-157.659l56.156-12.832c28.693 140.551-77.276 269.434-217.242 273.662-3.161.097-5.647 2.736-5.55 5.896.093 3.101 2.635 5.552 5.718 5.552.06 0 .119 0 .175-.002 148.608-4.497 261.273-143.261 226.929-293.114-.01-.052-.007-.103-.019-.155-.264-1.162-.865-2.158-1.676-2.912-1.342-1.261-3.267-1.853-5.204-1.411-.072.017-.136.051-.207.07-95.212 21.756-174.338 39.837-210.588 48.12l172.164-193.428c2.102-2.361 1.893-5.98-.47-8.082-2.363-2.1-5.982-1.884-8.081.471l-169.672 190.628 44.308-207.276c1.048-3.33-1.174-6.722-4.415-7.335-53.512-11.44-107.718-4.602-156.78 19.773-118.45 58.914-166.915 203.165-108.033 321.556zm311.752 48.126c-9.391 4.669-20.794.837-25.468-8.558-4.665-9.392-.833-20.804 8.561-25.47 9.374-4.661 20.785-.852 25.468 8.558 4.666 9.392.833 20.804-8.561 25.47zm-82.811-126.353c-15.752 7.841-34.841 1.382-42.669-14.374-7.825-15.724-1.41-34.835 14.32-42.665 4.804-2.377 9.963-3.488 15.158-3.317l-6.552 30.652c-.825 3.844 2.637 7.699 6.823 6.784.016-.004.033-.002.05-.006l30.507-6.971c.597 12.412-6.13 24.189-17.637 29.897zm-45.029 172.246c-15.951-5.362-33.19 3.196-38.551 19.162-5.359 15.956 3.196 33.188 19.162 38.552 15.948 5.363 33.19-3.196 38.551-19.162 5.361-15.963-3.196-33.188-19.162-38.552zm8.308 34.905c-3.345 9.957-14.087 15.306-24.052 11.955-9.958-3.345-15.302-14.087-11.953-24.052 3.344-9.956 14.087-15.305 24.052-11.955 9.949 3.343 15.302 14.086 11.953 24.052zm-47.485-248.1c-.004 0-.004 0-.004 0-7.469-15.034-25.726-21.211-40.817-13.716-15.054 7.484-21.202 25.761-13.712 40.82 7.452 15 25.698 21.229 40.817 13.716 15.09-7.502 21.183-25.79 13.716-40.82zm-44.279 22.009c-4.666-9.383-.827-20.809 8.558-25.472 9.387-4.667 20.796-.836 25.464 8.558 4.666 9.383.827 20.809-8.558 25.472-9.37 4.662-20.788.852-25.464-8.558z" fill="url(#SVGID_1_)" data-original-color="SVGID_1_" stroke="none" stroke-opacity="1"/></g><g id="Layer_1"/></g></svg>